<svg width="77" height="26" viewBox="0 0 77 26" fill="none" xmlns="http://www.w3.org/2000/svg">
<rect width="77" height="26" rx="13" fill="#EAEAEA"/>
<path d="M18.135 10.225V12.85H21.66V14.515H18.135V17.29H22.11V19H16.035V8.515H22.11V10.225H18.135ZM28.6234 10.57C29.6134 10.57 30.4134 10.885 31.0234 11.515C31.6334 12.135 31.9384 13.005 31.9384 14.125V19H29.8384V14.41C29.8384 13.75 29.6734 13.245 29.3434 12.895C29.0134 12.535 28.5634 12.355 27.9934 12.355C27.4134 12.355 26.9534 12.535 26.6134 12.895C26.2834 13.245 26.1184 13.75 26.1184 14.41V19H24.0184V10.69H26.1184V11.725C26.3984 11.365 26.7534 11.085 27.1834 10.885C27.6234 10.675 28.1034 10.57 28.6234 10.57ZM36.3804 12.415V16.435C36.3804 16.715 36.4454 16.92 36.5754 17.05C36.7154 17.17 36.9454 17.23 37.2654 17.23H38.2404V19H36.9204C35.1504 19 34.2654 18.14 34.2654 16.42V12.415H33.2754V10.69H34.2654V8.635H36.3804V10.69H38.2404V12.415H36.3804ZM41.8508 11.98C42.1208 11.54 42.4708 11.195 42.9008 10.945C43.3408 10.695 43.8408 10.57 44.4008 10.57V12.775H43.8458C43.1858 12.775 42.6858 12.93 42.3458 13.24C42.0158 13.55 41.8508 14.09 41.8508 14.86V19H39.7508V10.69H41.8508V11.98ZM45.2753 14.815C45.2753 13.975 45.4403 13.23 45.7703 12.58C46.1103 11.93 46.5653 11.43 47.1353 11.08C47.7153 10.73 48.3603 10.555 49.0703 10.555C49.6903 10.555 50.2303 10.68 50.6903 10.93C51.1603 11.18 51.5353 11.495 51.8153 11.875V10.69H53.9303V19H51.8153V17.785C51.5453 18.175 51.1703 18.5 50.6903 18.76C50.2203 19.01 49.6753 19.135 49.0553 19.135C48.3553 19.135 47.7153 18.955 47.1353 18.595C46.5653 18.235 46.1103 17.73 45.7703 17.08C45.4403 16.42 45.2753 15.665 45.2753 14.815ZM51.8153 14.845C51.8153 14.335 51.7153 13.9 51.5153 13.54C51.3153 13.17 51.0453 12.89 50.7053 12.7C50.3653 12.5 50.0003 12.4 49.6103 12.4C49.2203 12.4 48.8603 12.495 48.5303 12.685C48.2003 12.875 47.9303 13.155 47.7203 13.525C47.5203 13.885 47.4203 14.315 47.4203 14.815C47.4203 15.315 47.5203 15.755 47.7203 16.135C47.9303 16.505 48.2003 16.79 48.5303 16.99C48.8703 17.19 49.2303 17.29 49.6103 17.29C50.0003 17.29 50.3653 17.195 50.7053 17.005C51.0453 16.805 51.3153 16.525 51.5153 16.165C51.7153 15.795 51.8153 15.355 51.8153 14.845ZM58.0813 11.98C58.3513 11.54 58.7013 11.195 59.1313 10.945C59.5713 10.695 60.0713 10.57 60.6313 10.57V12.775H60.0763C59.4163 12.775 58.9163 12.93 58.5763 13.24C58.2463 13.55 58.0813 14.09 58.0813 14.86V19H55.9813V10.69H58.0813V11.98Z" fill="#003E25"/>
</svg>
