<svg width="45" height="48" viewBox="0 0 45 48" fill="none" xmlns="http://www.w3.org/2000/svg">
<path d="M4.936 8.18461C4.5 9.04084 4.5 10.1612 4.5 12.4018V13.6301L40.48 10.3572C40.442 9.38094 40.34 8.72876 40.064 8.18461C39.6805 7.43178 39.0686 6.81972 38.316 6.43612C37.46 6 36.34 6 34.1 6H10.9C8.66 6 7.54 6 6.684 6.43612C5.93139 6.81972 5.31949 7.43178 4.936 8.18461ZM40.5 14.3743L30.77 15.2586L35.782 42C36.966 41.974 37.708 41.884 38.316 41.5739C39.0686 41.1903 39.6805 40.5782 40.064 39.8254C40.5 38.9692 40.5 37.8488 40.5 35.6082V14.3743Z" fill="#003F25" fill-opacity="0.25"/>
<path fill-rule="evenodd" clip-rule="evenodd" d="M29.448 42L24.9123 15.62L4.5 17.644V35.6C4.5 37.84 4.5 38.96 4.89967 39.816C5.2512 40.5686 5.8121 41.1805 6.502 41.564C7.28667 42 8.31333 42 10.3667 42H29.448ZM21.9167 30.06C21.9167 34.376 17.9933 37.408 16.2828 38.526C16.0464 38.6808 15.7758 38.7625 15.5 38.7625C15.2242 38.7625 14.9536 38.6808 14.7172 38.526C13.0067 37.408 9.08333 34.376 9.08333 30.058C9.08333 25.824 12.1927 23 15.5 23C18.9228 23 21.9167 25.824 21.9167 30.06Z" fill="#003F25"/>
<path d="M15.3333 32C16.3459 32 17.1667 31.1046 17.1667 30C17.1667 28.8954 16.3459 28 15.3333 28C14.3208 28 13.5 28.8954 13.5 30C13.5 31.1046 14.3208 32 15.3333 32Z" fill="#003F25"/>
</svg>
