<svg width="41" height="42" viewBox="0 0 41 42" fill="none" xmlns="http://www.w3.org/2000/svg">
<path fill-rule="evenodd" clip-rule="evenodd" d="M10.25 5.625C10.0123 5.62501 9.7792 5.69116 9.57691 5.81607C9.37462 5.94097 9.21107 6.1197 9.10456 6.33225L5.26081 14.0198C5.17152 14.1979 5.12501 14.3945 5.125 14.5938V19.7188C5.125 20.0586 5.25999 20.3844 5.50027 20.6247C5.74055 20.865 6.06644 21 6.40625 21H7.6875V35.0938C7.6875 35.4336 7.82249 35.7595 8.06277 35.9997C8.30305 36.24 8.62894 36.375 8.96875 36.375H32.0312C32.3711 36.375 32.697 36.24 32.9372 35.9997C33.1775 35.7595 33.3125 35.4336 33.3125 35.0938V21H34.5938C34.9336 21 35.2595 20.865 35.4997 20.6247C35.74 20.3844 35.875 20.0586 35.875 19.7188V14.5938C35.875 14.3945 35.8285 14.1979 35.7392 14.0198L31.8954 6.33225C31.7889 6.1197 31.6254 5.94097 31.4231 5.81607C31.2208 5.69116 30.9877 5.62501 30.75 5.625H10.25ZM33.3125 14.8961V18.4375H28.1875V15.875H25.625V18.4375H21.7812V15.875H19.2188V18.4375H15.375V15.875H12.8125V18.4375H7.6875V14.8961L11.0418 8.1875H29.9582L33.3125 14.8961ZM16.6562 26.125H19.2188V23.5625H16.6562V26.125ZM21.7812 26.125H24.3438V23.5625H21.7812V26.125ZM19.2188 29.9688H16.6562V27.4062H19.2188V29.9688ZM21.7812 29.9688H24.3438V27.4062H21.7812V29.9688Z" fill="#003F25"/>
</svg>
