<svg width="48" height="48" viewBox="0 0 48 48" fill="none" xmlns="http://www.w3.org/2000/svg">
<path d="M40.41 27.222L39.009 29.982C39.969 30.927 40.5 31.956 40.5 33C40.5 36.858 33.219 40.5 24 40.5C14.781 40.5 7.5 36.858 7.5 33C7.5 31.956 8.034 30.93 8.991 29.985L7.563 27.246C5.628 28.866 4.5 30.828 4.5 33C4.5 39.081 13.338 43.5 24 43.5C34.662 43.5 43.5 39.081 43.5 33C43.5 30.816 42.36 28.848 40.41 27.222Z" fill="#003F25"/>
<path d="M40.41 18.222L39.009 20.982C39.969 21.93 40.5 22.959 40.5 24C40.5 27.858 33.219 31.5 24 31.5C14.781 31.5 7.5 27.858 7.5 24C7.5 22.956 8.034 21.93 8.991 20.985L7.563 18.246C5.628 19.866 4.5 21.828 4.5 24C4.5 30.081 13.338 34.5 24 34.5C34.662 34.5 43.5 30.081 43.5 24C43.5 21.816 42.36 19.848 40.41 18.222Z" fill="#003F25"/>
<path d="M24 26.5C34.662 26.5 43.5 22.081 43.5 16C43.5 9.919 34.662 5.5 24 5.5C13.338 5.5 4.5 9.919 4.5 16C4.5 22.081 13.338 26.5 24 26.5ZM24 23.5C14.781 23.5 7.5 19.858 7.5 16C7.5 12.142 14.781 8.5 24 8.5C33.219 8.5 40.5 12.142 40.5 16C40.5 19.858 33.219 23.5 24 23.5Z" fill="#003F25"/>
</svg>
