<svg width="49" height="48" viewBox="0 0 49 48" fill="none" xmlns="http://www.w3.org/2000/svg">
<path d="M12.5 6C10.9087 6 9.38258 6.63214 8.25736 7.75736C7.13214 8.88258 6.5 10.4087 6.5 12V16.286C6.5 16.954 6.5 17.288 6.654 17.532C6.73381 17.6589 6.84112 17.7662 6.968 17.846C7.212 18 7.546 18 8.214 18H18.5M12.5 6C14.0913 6 15.6174 6.63214 16.7426 7.75736C17.8679 8.88258 18.5 10.4087 18.5 12V18M12.5 6H34.5C38.272 6 40.156 6 41.328 7.172C42.5 8.344 42.5 10.228 42.5 14V42L36.5 40L30.5 42L24.5 40L18.5 42V18" stroke="#003F25" stroke-width="2"/>
<path d="M34.5 14H26.5M32.5 22H34.5M34.5 30H28.5" stroke="#003F25" stroke-width="2" stroke-linecap="round"/>
</svg>
