<svg width="15" height="16" viewBox="0 0 15 16" fill="none" xmlns="http://www.w3.org/2000/svg">
<path d="M6.707 2.79303C6.51947 2.60556 6.26516 2.50024 6 2.50024C5.73484 2.50024 5.48053 2.60556 5.293 2.79303L0.793 7.29303C0.605529 7.48056 0.500214 7.73487 0.500214 8.00003C0.500214 8.26519 0.605529 8.5195 0.793 8.70703L5.293 13.207C5.4816 13.3892 5.7342 13.49 5.9964 13.4877C6.2586 13.4854 6.50941 13.3803 6.69482 13.1948C6.88023 13.0094 6.9854 12.7586 6.98767 12.4964C6.98995 12.2342 6.88916 11.9816 6.707 11.793L4 9.00003H13.5C13.7652 9.00003 14.0196 8.89467 14.2071 8.70714C14.3946 8.5196 14.5 8.26525 14.5 8.00003C14.5 7.73481 14.3946 7.48046 14.2071 7.29292C14.0196 7.10539 13.7652 7.00003 13.5 7.00003H4L6.707 4.20703C6.89447 4.0195 6.99979 3.76519 6.99979 3.50003C6.99979 3.23487 6.89447 2.98056 6.707 2.79303Z" fill="#003F25"/>
</svg>
