<svg width="12" height="15" viewBox="0 0 12 15" fill="none" xmlns="http://www.w3.org/2000/svg">
<path fill-rule="evenodd" clip-rule="evenodd" d="M5.99997 2.14286C4.79498 2.14286 3.81815 3.10225 3.81815 4.28571V5.35714H8.18179V4.28571C8.18179 3.10225 7.20495 2.14286 5.99997 2.14286ZM1.63633 4.28571V5.35714C0.732611 5.35716 0 6.07669 0 6.96429V13.3929C0 14.2804 0.732622 15 1.63636 15H10.3636C11.2673 15 12 14.2804 12 13.3929V6.96429C12 6.07668 11.2673 5.35714 10.3636 5.35714V4.28571C10.3636 1.91878 8.40994 0 5.99997 0C3.59 0 1.63633 1.91878 1.63633 4.28571ZM6 11.5179C6.75312 11.5179 7.36364 10.9183 7.36364 10.1786C7.36364 9.4389 6.75312 8.83929 6 8.83929C5.24688 8.83929 4.63636 9.4389 4.63636 10.1786C4.63636 10.9183 5.24688 11.5179 6 11.5179Z" fill="#003E25"/>
</svg>
